<svg id="visual" viewBox="0 0 900 600" width="900" height="600" xmlns="http://www.w3.org/2000/svg" xmlns:xlink="http://www.w3.org/1999/xlink" version="1.1"><rect x="0" y="0" width="900" height="600" fill="#008080"></rect><path d="M0 454L150 412L300 458L450 455L600 442L750 429L900 408L900 601L750 601L600 601L450 601L300 601L150 601L0 601Z" fill="#007475"></path><path d="M0 475L150 493L300 469L450 486L600 470L750 501L900 494L900 601L750 601L600 601L450 601L300 601L150 601L0 601Z" fill="#238e89"></path><path d="M0 516L150 526L300 512L450 517L600 519L750 505L900 515L900 601L750 601L600 601L450 601L300 601L150 601L0 601Z" fill="#3da89b"></path><path d="M0 564L150 564L300 572L450 540L600 567L750 541L900 571L900 601L750 601L600 601L450 601L300 601L150 601L0 601Z" fill="#57c3ad"></path></svg>